<svg width="266" height="290" viewBox="0 0 266 290" fill="none" xmlns="http://www.w3.org/2000/svg">
<path d="M105.742 6.19767C101.733 12.375 103.492 20.632 109.669 24.6403C115.846 28.6486 124.103 26.8903 128.112 20.713C132.12 14.5357 130.362 6.27862 124.184 2.27032C118.007 -1.73797 109.75 0.0203612 105.742 6.19767ZM246.593 138.679L248.36 140.447L250.159 138.648L248.329 136.88L246.593 138.679ZM106.721 278.551L127.133 278.551L127.133 258.138L106.721 258.138L106.721 278.551ZM115.19 15.2536L244.856 140.477L248.329 136.88L118.663 11.657L115.19 15.2536ZM244.825 136.911L115.159 266.577L118.695 270.112L248.36 140.447L244.825 136.911Z" fill="white"/>
</svg>
