<svg width="1085" height="1381" viewBox="0 0 1085 1381" fill="none" xmlns="http://www.w3.org/2000/svg">
<rect x="147.241" y="1313.52" width="49.0779" height="48.685" transform="rotate(60.4176 147.241 1313.52)" fill="white"/>
<path d="M476 227C476 244.673 461.673 259 444 259C426.327 259 412 244.673 412 227C412 209.327 426.327 195 444 195C461.673 195 476 209.327 476 227Z" fill="white"/>
<path d="M1085 32C1085 49.6731 1070.67 64 1053 64C1035.33 64 1021 49.6731 1021 32C1021 14.3269 1035.33 0 1053 0C1070.67 0 1085 14.3269 1085 32Z" fill="white"/>
</svg>
