<svg width="917" height="829" viewBox="0 0 917 829" fill="none" xmlns="http://www.w3.org/2000/svg">
<path d="M0.333332 43.5085C0.333332 67.0727 19.4359 86.1752 43 86.1752C66.5641 86.1752 85.6667 67.0727 85.6667 43.5085C85.6667 19.9444 66.5641 0.841877 43 0.841877C19.4359 0.841877 0.333332 19.9444 0.333332 43.5085ZM830.686 785.82C830.686 809.384 849.789 828.486 873.353 828.486C896.917 828.486 916.019 809.384 916.019 785.82C916.019 762.255 896.917 743.153 873.353 743.153C849.789 743.153 830.686 762.255 830.686 785.82ZM37.6682 49.4727L868.021 791.784L878.685 779.855L48.3318 37.5443L37.6682 49.4727Z" fill="white"/>
</svg>
