<svg width="255" height="59" viewBox="0 0 255 59" fill="none" xmlns="http://www.w3.org/2000/svg">
<path d="M-52.4317 27.3721L-42.6279 40.4317L-29.5683 30.6279L-39.3721 17.5683L-52.4317 27.3721ZM117 51.5L116.718 53.48L117.173 53.5448L117.61 53.4048L117 51.5ZM232.833 11C232.833 16.891 237.609 21.6667 243.5 21.6667C249.391 21.6667 254.167 16.891 254.167 11C254.167 5.10896 249.391 0.333333 243.5 0.333333C237.609 0.333333 232.833 5.10896 232.833 11ZM-41.282 30.98L116.718 53.48L117.282 49.52L-40.718 27.02L-41.282 30.98ZM117.61 53.4048L244.11 12.9048L242.89 9.09524L116.39 49.5952L117.61 53.4048Z" fill="white"/>
<path d="M125 51C125 55.4183 121.418 59 117 59C112.582 59 109 55.4183 109 51C109 46.5817 112.582 43 117 43C121.418 43 125 46.5817 125 51Z" fill="white"/>
</svg>
