<svg width="1086" height="1381" viewBox="0 0 1086 1381" fill="none" xmlns="http://www.w3.org/2000/svg">
<path d="M-351.295 113.82L-321.884 152.998L-282.705 123.587L-312.116 84.4083L-351.295 113.82ZM444.062 227.082L443.216 233.022L444.58 233.217L445.892 232.797L444.062 227.082ZM1021.39 32C1021.39 49.6731 1035.72 64 1053.39 64C1071.07 64 1085.39 49.6731 1085.39 32C1085.39 14.3269 1071.07 0 1053.39 0C1035.72 0 1021.39 14.3269 1021.39 32ZM-317.846 124.643L443.216 233.022L444.908 221.142L-316.154 112.763L-317.846 124.643ZM445.892 232.797L1055.22 37.7143L1051.56 26.2857L442.233 221.368L445.892 232.797Z" fill="white"/>
<path d="M412.062 227.083C412.062 244.756 426.389 259.083 444.062 259.083C461.735 259.083 476.062 244.756 476.062 227.083C476.062 209.409 461.735 195.083 444.062 195.083C426.389 195.083 412.062 209.409 412.062 227.083ZM129.066 1380.42L171.609 1356.13L147.319 1313.58L104.775 1337.87L129.066 1380.42ZM438.274 225.502L132.404 1345.42L143.98 1348.58L449.85 228.663L438.274 225.502Z" fill="white"/>
</svg>
