<svg width="3587" height="3490" viewBox="0 0 3587 3490" fill="none" xmlns="http://www.w3.org/2000/svg">
<path d="M0.333333 2704.51C0.333333 2728.07 19.4359 2747.18 43 2747.18C66.5641 2747.18 85.6667 2728.07 85.6667 2704.51C85.6667 2680.94 66.5641 2661.84 43 2661.84C19.4359 2661.84 0.333333 2680.94 0.333333 2704.51ZM830.686 3446.82C830.686 3470.38 849.789 3489.49 873.353 3489.49C896.917 3489.49 916.019 3470.38 916.019 3446.82C916.019 3423.26 896.917 3404.15 873.353 3404.15C849.789 3404.15 830.686 3423.26 830.686 3446.82ZM37.6682 2710.47L868.021 3452.78L878.685 3440.86L48.3318 2698.54L37.6682 2710.47Z" fill="white"/>
<path d="M338.69 493.112C338.69 516.676 357.792 535.778 381.357 535.778C404.921 535.778 424.023 516.676 424.023 493.112C424.023 469.548 404.921 450.445 381.357 450.445C357.792 450.445 338.69 469.548 338.69 493.112ZM192.874 1169.43L249.766 1137.34L217.673 1080.45L160.781 1112.54L192.874 1169.43ZM373.65 490.964L197.567 1122.79L212.98 1127.09L389.063 495.259L373.65 490.964Z" fill="white"/>
<rect x="3386.4" y="3280.85" width="59.9047" height="59.9047" transform="rotate(71.6337 3386.4 3280.85)" fill="white"/>
<path d="M2493.12 -118C2493.12 -94.4359 2512.22 -75.3333 2535.78 -75.3333C2559.35 -75.3333 2578.45 -94.4359 2578.45 -118C2578.45 -141.564 2559.35 -160.667 2535.78 -160.667C2512.22 -160.667 2493.12 -141.564 2493.12 -118ZM3501.28 788.31C3501.28 811.874 3520.38 830.977 3543.95 830.977C3567.51 830.977 3586.61 811.874 3586.61 788.31C3586.61 764.746 3567.51 745.643 3543.95 745.643C3520.38 745.643 3501.28 764.746 3501.28 788.31ZM3379.95 191.009L3387.66 188.89L3386.57 184.914L3382.7 183.496L3379.95 191.009ZM2533.03 -110.488L3377.2 198.521L3382.7 183.496L2538.53 -125.512L2533.03 -110.488ZM3372.23 193.127L3536.23 790.428L3551.66 786.192L3387.66 188.89L3372.23 193.127Z" fill="white"/>
</svg>
