<svg width="1052" height="1786" viewBox="0 0 1052 1786" fill="none" xmlns="http://www.w3.org/2000/svg">
<path d="M0.572266 1753.86C0.572264 1736.19 14.8992 1721.86 32.5723 1721.86C50.2454 1721.86 64.5723 1736.19 64.5723 1753.86C64.5723 1771.54 50.2454 1785.86 32.5723 1785.86C14.8992 1785.86 0.572267 1771.54 0.572266 1753.86ZM32.5721 377.5L26.5721 377.5L26.5721 375.059L28.277 373.311L32.5721 377.5ZM988 187.119C988 169.446 1002.33 155.119 1020 155.119C1037.67 155.119 1052 169.446 1052 187.119C1052 204.792 1037.67 219.119 1020 219.119C1002.33 219.119 988 204.792 988 187.119ZM542.069 -306.001C542.069 -323.674 556.396 -338.001 574.069 -338.001C591.742 -338.001 606.069 -323.674 606.069 -306.001C606.069 -288.327 591.742 -274.001 574.069 -274.001C556.396 -274.001 542.069 -288.327 542.069 -306.001ZM26.5723 1753.86L26.5721 377.5L38.5721 377.5L38.5723 1753.86L26.5723 1753.86ZM28.277 373.311L213.977 182.929L222.567 191.308L36.8673 381.69L28.277 373.311ZM218.272 181.119L1020 181.119L1020 193.119L218.272 193.119L218.272 181.119ZM213.406 183.608L569.203 -309.511L578.934 -302.49L223.138 190.629L213.406 183.608Z" fill="#0F2132"/>
<ellipse cx="33" cy="379" rx="26" ry="26" transform="rotate(180 33 379)" fill="#0F2132"/>
<ellipse cx="30.5" cy="30" rx="30.5" ry="30" transform="matrix(1 -8.74228e-08 -8.74228e-08 -1 186 222)" fill="#0F2132"/>
</svg>
