<svg width="2478" height="1786" viewBox="0 0 2478 1786" fill="none" xmlns="http://www.w3.org/2000/svg">
<path d="M0.572266 1753.87C0.572264 1736.19 14.8992 1721.87 32.5723 1721.87C50.2454 1721.87 64.5723 1736.19 64.5723 1753.87C64.5723 1771.54 50.2454 1785.87 32.5723 1785.87C14.8992 1785.87 0.572267 1771.54 0.572266 1753.87ZM32.5721 377.501L26.5721 377.501L26.5721 375.059L28.277 373.311L32.5721 377.501ZM2413.5 187.117C2413.5 169.444 2427.83 155.117 2445.5 155.117C2463.17 155.117 2477.5 169.444 2477.5 187.117C2477.5 204.791 2463.17 219.117 2445.5 219.117C2427.83 219.117 2413.5 204.791 2413.5 187.117ZM542.069 -306C542.069 -323.673 556.396 -338 574.069 -338C591.742 -338 606.069 -323.673 606.069 -306C606.069 -288.327 591.742 -274 574.069 -274C556.396 -274 542.069 -288.327 542.069 -306ZM26.5723 1753.87L26.5721 377.501L38.5721 377.501L38.5723 1753.87L26.5723 1753.87ZM28.277 373.311L213.977 182.93L222.567 191.309L36.8673 381.69L28.277 373.311ZM218.272 181.119L2445.5 181.117L2445.5 193.117L218.272 193.119L218.272 181.119ZM213.406 183.609L569.203 -309.511L578.934 -302.489L223.138 190.63L213.406 183.609Z" fill="#0F2132"/>
<ellipse cx="33" cy="379" rx="26" ry="26" transform="rotate(180 33 379)" fill="#0F2132"/>
<ellipse cx="30.5" cy="30" rx="30.5" ry="30" transform="matrix(1 -8.74228e-08 -8.74228e-08 -1 186 222)" fill="#0F2132"/>
</svg>
