<svg width="758" height="683" viewBox="0 0 758 683" fill="none" xmlns="http://www.w3.org/2000/svg">
<path d="M757.832 669C757.832 661.636 751.863 655.667 744.499 655.667C737.135 655.667 731.166 661.636 731.166 669C731.166 676.364 737.135 682.333 744.499 682.333C751.863 682.333 757.832 676.364 757.832 669ZM744.499 228L746.999 228L746.999 226.777L746.033 226.026L744.499 228ZM27.3334 167C27.3334 159.636 21.3638 153.667 14 153.667C6.63625 153.667 0.666711 159.636 0.666711 167C0.66671 174.364 6.63625 180.334 14 180.334C21.3638 180.334 27.3334 174.364 27.3334 167ZM569.833 14C569.833 6.63619 563.863 0.666651 556.5 0.66665C549.136 0.66665 543.166 6.63619 543.166 14C543.166 21.3638 549.136 27.3333 556.5 27.3333C563.863 27.3333 569.833 21.3638 569.833 14ZM746.999 669L746.999 228L741.999 228L741.999 669L746.999 669ZM746.033 226.026L667.533 165.026L664.465 168.974L742.965 229.974L746.033 226.026ZM665.999 164.5L14 164.5L14 169.5L665.999 169.5L665.999 164.5ZM668.032 165.545L558.533 12.545L554.467 15.455L663.966 168.455L668.032 165.545Z" fill="#0F2132"/>
<path d="M757.999 228.5C757.999 221.321 752.179 215.5 744.999 215.5C737.819 215.5 731.999 221.321 731.999 228.5C731.999 235.68 737.819 241.5 744.999 241.5C752.179 241.5 757.999 235.68 757.999 228.5Z" fill="#0F2132"/>
<ellipse cx="665.999" cy="168.5" rx="13" ry="13" transform="rotate(-180 665.999 168.5)" fill="#0F2132"/>
</svg>
