<svg width="2038" height="2131" viewBox="0 0 2038 2131" fill="none" xmlns="http://www.w3.org/2000/svg">
<path d="M0.512695 40C0.512695 62.0914 18.4213 80 40.5127 80C62.6041 80 80.5127 62.0914 80.5127 40C80.5127 17.9086 62.6041 0 40.5127 0C18.4213 0 0.512695 17.9086 0.512695 40ZM40.5127 1728.81H33.0127V1731.27L34.4737 1733.26L40.5127 1728.81ZM1958 1962.41C1958 1984.5 1975.91 2002.41 1998 2002.41C2020.09 2002.41 2038 1984.5 2038 1962.41C2038 1940.32 2020.09 1922.41 1998 1922.41C1975.91 1922.41 1958 1940.32 1958 1962.41ZM348.928 2354.93C348.928 2377.03 366.837 2394.93 388.928 2394.93C411.019 2394.93 428.928 2377.03 428.928 2354.93C428.928 2332.84 411.019 2314.93 388.928 2314.93C366.837 2314.93 348.928 2332.84 348.928 2354.93ZM33.0127 40L33.0127 1728.81H48.0127L48.0127 40H33.0127ZM34.4737 1733.26L206.513 1966.86L218.591 1957.96L46.5517 1724.36L34.4737 1733.26ZM212.552 1969.91L1998 1969.91V1954.91L212.552 1954.91V1969.91ZM205.711 1965.48L382.087 2358.01L395.769 2351.86L219.393 1959.34L205.711 1965.48Z" fill="white"/>
<circle cx="38.8938" cy="1730.17" r="26.8938" fill="white"/>
<circle cx="212.668" cy="1961.87" r="26.8938" fill="white"/>
</svg>
