<svg width="2037" height="2133" viewBox="0 0 2037 2133" fill="none" xmlns="http://www.w3.org/2000/svg">
<path d="M80 40C80 62.0914 62.0914 80 40 80C17.9086 80 0 62.0914 0 40C0 17.9086 17.9086 0 40 0C62.0914 0 80 17.9086 80 40Z" fill="white"/>
<path d="M2037 1962C2037 1984.09 2019.09 2002 1997 2002C1974.91 2002 1957 1984.09 1957 1962C1957 1939.91 1974.91 1922 1997 1922C2019.09 1922 2037 1939.91 2037 1962Z" fill="white"/>
<path d="M239 1962C239 1976.91 226.912 1989 212 1989C197.088 1989 185 1976.91 185 1962C185 1947.09 197.088 1935 212 1935C226.912 1935 239 1947.09 239 1962Z" fill="white"/>
<path d="M65 1730C65 1744.91 52.9117 1757 38 1757C23.0883 1757 11 1744.91 11 1730C11 1715.09 23.0883 1703 38 1703C52.9117 1703 65 1715.09 65 1730Z" fill="white"/>
</svg>
