<svg width="490" height="576" viewBox="0 0 490 576" fill="none" xmlns="http://www.w3.org/2000/svg">
<path d="M0.89209 8C0.89209 12.4183 4.47381 16 8.89209 16C13.3104 16 16.8921 12.4183 16.8921 8C16.8921 3.58172 13.3104 0 8.89209 0C4.47381 0 0.89209 3.58172 0.89209 8ZM8.89209 416.171H7.39209V416.664L7.68429 417.061L8.89209 416.171ZM474 472.63C474 477.048 477.582 480.63 482 480.63C486.419 480.63 490 477.048 490 472.63C490 468.212 486.419 464.63 482 464.63C477.582 464.63 474 468.212 474 472.63ZM85.1012 567.5C85.1012 571.918 88.6829 575.5 93.1012 575.5C97.5194 575.5 101.101 571.918 101.101 567.5C101.101 563.082 97.5194 559.5 93.1012 559.5C88.6829 559.5 85.1012 563.082 85.1012 567.5ZM7.39209 8V416.171H10.3921V8H7.39209ZM7.68429 417.061L49.2647 473.52L51.6803 471.741L10.0999 415.282L7.68429 417.061ZM50.4725 474.13H482V471.13H50.4725V474.13ZM49.1043 473.245L91.7329 568.115L94.4694 566.885L51.8407 472.015L49.1043 473.245Z" fill="white"/>
<circle cx="8.5" cy="416.5" r="6.5" fill="white"/>
<circle cx="50.5" cy="472.5" r="6.5" fill="white"/>
</svg>
