<svg width="1897" height="1027" viewBox="0 0 1897 1027" fill="none" xmlns="http://www.w3.org/2000/svg">
<circle cx="100.5" cy="964.5" r="6.5" fill="white"/>
<circle cx="142.5" cy="1020.5" r="6.5" fill="white"/>
<path d="M853 783C853 791.837 860.163 799 869 799C877.837 799 885 791.837 885 783C885 774.163 877.837 767 869 767C860.163 767 853 774.163 853 783ZM1093.5 998C1093.5 1006.84 1100.66 1014 1109.5 1014C1118.34 1014 1125.5 1006.84 1125.5 998C1125.5 989.163 1118.34 982 1109.5 982C1100.66 982 1093.5 989.163 1093.5 998ZM867.001 785.237L1107.5 1000.24L1111.5 995.763L870.999 780.763L867.001 785.237Z" fill="white"/>
<path d="M959 142.5C959 146.918 962.582 150.5 967 150.5C971.418 150.5 975 146.918 975 142.5C975 138.082 971.418 134.5 967 134.5C962.582 134.5 959 138.082 959 142.5ZM913.675 333.842L924.342 327.825L918.325 317.158L907.658 323.175L913.675 333.842ZM965.555 142.097L914.555 325.097L917.445 325.903L968.445 142.903L965.555 142.097Z" fill="white"/>
<rect x="1837.37" y="949.928" width="17.3505" height="17.3505" transform="rotate(71.6337 1837.37 949.928)" fill="white"/>
<path d="M1577.67 -34.5C1577.67 -27.1362 1583.64 -21.1667 1591 -21.1667C1598.36 -21.1667 1604.33 -27.1362 1604.33 -34.5C1604.33 -41.8638 1598.36 -47.8333 1591 -47.8333C1583.64 -47.8333 1577.67 -41.8638 1577.67 -34.5ZM1869.67 228C1869.67 235.364 1875.64 241.333 1883 241.333C1890.36 241.333 1896.33 235.364 1896.33 228C1896.33 220.636 1890.36 214.667 1883 214.667C1875.64 214.667 1869.67 220.636 1869.67 228ZM1835.5 55L1837.91 54.3381L1837.57 53.0953L1836.36 52.6523L1835.5 55ZM1590.14 -32.1523L1834.64 57.3477L1836.36 52.6523L1591.86 -36.8477L1590.14 -32.1523ZM1833.09 55.6619L1880.59 228.662L1885.41 227.338L1837.91 54.3381L1833.09 55.6619Z" fill="white"/>
<rect x="1841.81" y="49.3758" width="11.4363" height="11.4363" transform="rotate(91.283 1841.81 49.3758)" fill="white"/>
<path d="M-52.4317 69.3721L-42.6279 82.4317L-29.5683 72.6279L-39.3721 59.5683L-52.4317 69.3721ZM117 93.5L116.718 95.48L117.173 95.5448L117.61 95.4048L117 93.5ZM232.833 53C232.833 58.891 237.609 63.6667 243.5 63.6667C249.391 63.6667 254.167 58.891 254.167 53C254.167 47.109 249.391 42.3333 243.5 42.3333C237.609 42.3333 232.833 47.109 232.833 53ZM-41.282 72.98L116.718 95.48L117.282 91.52L-40.718 69.02L-41.282 72.98ZM117.61 95.4048L244.11 54.9048L242.89 51.0952L116.39 91.5952L117.61 95.4048Z" fill="white"/>
<path d="M125 93C125 97.4183 121.418 101 117 101C112.582 101 109 97.4183 109 93C109 88.5817 112.582 85 117 85C121.418 85 125 88.5817 125 93Z" fill="white"/>
<rect x="56.2402" y="317.152" width="12.7502" height="12.7502" transform="rotate(60.4176 56.2402 317.152)" fill="white"/>
</svg>
